<svg width="95" height="44" viewBox="0 0 95 44" fill="none" xmlns="http://www.w3.org/2000/svg">
<g clip-path="url(#clip0_101_951)">
<path d="M54.8596 32.4833C57.3786 32.4833 59.4206 30.4413 59.4206 27.9223C59.4206 25.4034 57.3786 23.3613 54.8596 23.3613C52.3406 23.3613 50.2986 25.4034 50.2986 27.9223C50.2986 30.4413 52.3406 32.4833 54.8596 32.4833Z" fill="#9A1725"/>
<path d="M50.8056 14.9057C52.4675 14.9057 53.8146 13.5585 53.8146 11.8967C53.8146 10.2349 52.4675 8.8877 50.8056 8.8877C49.1438 8.8877 47.7966 10.2349 47.7966 11.8967C47.7966 13.5585 49.1438 14.9057 50.8056 14.9057Z" fill="#F1592A"/>
<path d="M44.0891 12.9411C45.4535 12.9411 46.5596 11.835 46.5596 10.4705C46.5596 9.1061 45.4535 8 44.0891 8C42.7246 8 41.6185 9.1061 41.6185 10.4705C41.6185 11.835 42.7246 12.9411 44.0891 12.9411Z" fill="#F8931D"/>
<path d="M38.2617 14.7466C39.5212 14.7466 40.5422 13.7255 40.5422 12.466C40.5422 11.2066 39.5212 10.1855 38.2617 10.1855C37.0022 10.1855 35.9812 11.2066 35.9812 12.466C35.9812 13.7255 37.0022 14.7466 38.2617 14.7466Z" fill="#FCB040"/>
<path d="M35.4106 18.5794C36.4251 18.5794 37.2476 17.7569 37.2476 16.7423C37.2476 15.7278 36.4251 14.9053 35.4106 14.9053C34.396 14.9053 33.5735 15.7278 33.5735 16.7423C33.5735 17.7569 34.396 18.5794 35.4106 18.5794Z" fill="#FECB56"/>
<path d="M59.0384 18.2939C59.0384 19.1491 58.7217 19.9093 58.2149 20.5111C57.6131 21.2079 56.6946 21.6513 55.681 21.6513C54.4774 21.6513 53.4005 21.0179 52.7987 20.036C52.482 19.5292 52.3236 18.9274 52.3236 18.2939C52.3236 16.4569 53.8123 14.9365 55.681 14.9365C57.5498 14.9365 59.0384 16.4252 59.0384 18.2939Z" fill="#EE4037"/>
<path d="M14.5382 19.7515C13.6513 19.7515 12.9228 20.4483 12.8912 21.3351C11.5609 20.3533 9.88218 19.7515 8.07678 19.7515C3.6108 19.7515 0 23.3623 0 27.8283C0 32.2942 3.6108 35.905 8.07678 35.905C9.88218 35.905 11.5292 35.3032 12.8912 34.3213C12.8912 34.3213 12.8912 34.3213 12.8912 34.353C12.8912 35.2716 13.6197 36 14.5382 36C15.4567 36 16.1852 35.2399 16.1852 34.353V21.3985C16.1852 20.5116 15.4567 19.7515 14.5382 19.7515ZM8.04511 32.611C5.41619 32.611 3.29406 30.4888 3.29406 27.8599C3.29406 25.231 5.41619 23.1089 8.04511 23.1089C10.674 23.1089 12.7962 25.231 12.7962 27.8599C12.7962 30.4888 10.7057 32.611 8.04511 32.611Z" fill="#181818"/>
<path d="M68.8272 19.751C67.1484 19.751 65.5964 20.2578 64.2978 21.1447V16.7421C64.2978 15.7918 63.506 15 62.5558 15C61.6056 15 60.8137 15.7918 60.8137 16.7421V22.4116C61.1938 22.8234 61.5422 23.2985 61.8273 23.7736C62.5241 24.9772 62.9359 26.3708 62.9359 27.8278C62.9359 29.3165 62.5241 30.7101 61.8273 31.8821C61.5422 32.3888 61.1938 32.8323 60.8137 33.244V34.2259C60.8137 35.1761 61.6056 35.9363 62.5558 35.9363C63.411 35.9363 64.1395 35.3028 64.2661 34.4793C65.5648 35.3662 67.1168 35.8729 68.7955 35.8729C73.2615 35.8729 76.8723 32.2621 76.8723 27.7962C76.9356 23.3935 73.2931 19.751 68.8272 19.751ZM68.8272 32.6105C66.7367 32.6105 64.9313 31.2486 64.2978 29.3482C64.1395 28.8731 64.0444 28.3663 64.0444 27.8278C64.0444 27.2894 64.1395 26.7826 64.2978 26.3075C64.9313 24.4071 66.705 23.0451 68.8272 23.0451C71.4561 23.0451 73.5782 25.1672 73.5782 27.7962C73.5782 30.4251 71.4561 32.6105 68.8272 32.6105Z" fill="#181818"/>
<path d="M86.0563 19.7515C81.5903 19.7515 77.9795 23.3623 77.9795 27.8282C77.9795 32.2942 81.5903 35.905 86.0563 35.905C90.5223 35.905 94.1331 32.2942 94.1331 27.8282C94.1331 23.3939 90.5223 19.7515 86.0563 19.7515ZM86.0563 32.611C83.4274 32.611 81.3052 30.4888 81.3052 27.8599C81.3052 25.231 83.4274 23.1089 86.0563 23.1089C88.6852 23.1089 90.8073 25.231 90.8073 27.8599C90.8073 30.4888 88.6852 32.611 86.0563 32.611Z" fill="#181818"/>
<path d="M22.3287 20.2891C22.4554 20.2574 22.5821 20.2574 22.6771 20.2574C23.5956 20.2574 24.3241 21.0176 24.3241 21.9044C24.3241 22.823 23.5956 23.5515 22.6771 23.5515C22.487 23.5515 22.297 23.5198 22.107 23.4564V34.2255C22.107 35.1757 21.3151 35.9675 20.3649 35.9675C19.4147 35.9675 18.6229 35.1757 18.6229 34.2255V23.5515C17.7043 23.5515 16.9758 22.7913 16.9758 21.9044C16.9758 20.9859 17.736 20.2574 18.6229 20.2574C18.6229 20.2574 18.8446 14.8095 23.6273 14.9045C24.6092 14.9045 25.401 15.6964 25.401 16.6783C25.401 17.6602 24.6092 18.452 23.659 18.452C23.6273 18.452 23.5956 18.452 23.5323 18.452C23.2155 18.4837 22.297 18.7054 22.3287 20.2891Z" fill="#181818"/>
<path d="M32.8778 21.9679C32.8778 22.9181 32.1176 23.6783 31.1674 23.6783C31.0407 23.6783 28.7919 23.71 28.7919 26.5289V34.2573C28.7919 35.2075 28.0001 35.9993 27.0498 35.9993C26.0996 35.9993 25.3078 35.2075 25.3078 34.2573V22.2846C25.2761 22.1896 25.2761 22.0946 25.2761 21.9679C25.2761 21.0494 26.0046 20.3209 26.9232 20.3209C27.8417 20.3209 28.5702 21.081 28.5702 21.9679C28.5702 22.0629 28.5702 22.1263 28.5385 22.2213C29.7738 19.9725 31.0407 20.2259 31.1041 20.2259C32.1176 20.2575 32.8778 21.0177 32.8778 21.9679Z" fill="#181818"/>
<path d="M37.059 21.9048V34.2576C37.059 35.1761 36.3305 35.9046 35.4119 35.9046C34.4934 35.9046 33.7649 35.1444 33.7649 34.2576V21.9048C33.7649 20.9863 34.4934 20.2578 35.4119 20.2578C36.3305 20.2578 37.059 20.9863 37.059 21.9048Z" fill="#181818"/>
<path d="M51.0567 35.5559C50.93 35.7143 48.5862 35.6192 48.5862 35.6192C48.5862 35.6192 48.2061 35.5242 47.6676 34.8274L47.3509 34.3523L43.1383 28.2076V34.2573C43.1383 35.1758 42.3781 35.9043 41.4913 35.9043C40.5727 35.9043 39.8442 35.1441 39.8442 34.2573V17.2169C39.8442 16.2983 40.6044 15.5698 41.4913 15.5698C42.4098 15.5698 43.1383 16.2983 43.1383 17.2169V27.4791L47.2559 21.4928C47.5726 21.1444 48.3328 20.4159 49.5997 20.2575C51.1517 20.0675 50.8667 20.7326 50.8033 20.8593C48.3961 22.253 46.7808 24.8819 46.7808 27.8592C46.7808 30.9632 48.5228 33.6555 51.0884 35.0174C51.0884 35.0174 51.0884 35.0174 51.1201 35.0174C51.1201 35.1441 51.1517 35.4292 51.0567 35.5559Z" fill="#181818"/>
</g>
<defs>
<clipPath id="clip0_101_951">
<rect width="94.1331" height="44" fill="white"/>
</clipPath>
</defs>
</svg>
