<svg width="33" height="32" viewBox="0 0 33 32" fill="none" xmlns="http://www.w3.org/2000/svg">
<rect x="0.133057" width="32" height="32" rx="16" fill="#FFEBED"/>
<path fill-rule="evenodd" clip-rule="evenodd" d="M16.1331 10.5299C15.0995 10.5299 14.0942 10.9771 13.3426 11.7967C12.5891 12.6184 12.1561 13.7454 12.1561 14.9325C12.1561 15.3244 12.2828 15.8273 12.538 16.4206C12.7896 17.0054 13.1451 17.6302 13.552 18.2523C14.3661 19.4966 15.3469 20.6706 15.9964 21.4048C16.0385 21.4524 16.0875 21.4701 16.1331 21.4701C16.1786 21.4701 16.2276 21.4524 16.2698 21.4048C16.9192 20.6706 17.9 19.4966 18.7141 18.2523C19.1211 17.6302 19.4765 17.0054 19.7281 16.4206C19.9833 15.8273 20.11 15.3244 20.11 14.9325C20.11 13.7454 19.677 12.6184 18.9235 11.7967C18.1719 10.9771 17.1666 10.5299 16.1331 10.5299ZM16.1331 13.0796C14.9648 13.0796 14.0177 14.0309 14.0177 15.2044C14.0177 16.3779 14.9648 17.3292 16.1331 17.3292C17.3014 17.3292 18.2484 16.3779 18.2484 15.2044C18.2484 14.0309 17.3014 13.0796 16.1331 13.0796Z" fill="#9A1725"/>
<path fill-rule="evenodd" clip-rule="evenodd" d="M16.1331 10.5299C15.0995 10.5299 14.0942 10.9771 13.3426 11.7967C12.5891 12.6184 12.1561 13.7454 12.1561 14.9325C12.1561 15.3244 12.2828 15.8273 12.538 16.4206C12.7896 17.0054 13.1451 17.6302 13.552 18.2523C14.3661 19.4966 15.3469 20.6706 15.9964 21.4048C16.0385 21.4524 16.0875 21.4701 16.1331 21.4701C16.1786 21.4701 16.2276 21.4524 16.2698 21.4048C16.9192 20.6706 17.9 19.4966 18.7141 18.2523C19.1211 17.6302 19.4765 17.0054 19.7281 16.4206C19.9833 15.8273 20.11 15.3244 20.11 14.9325C20.11 13.7454 19.677 12.6184 18.9235 11.7967C18.1719 10.9771 17.1666 10.5299 16.1331 10.5299ZM12.2223 10.7602C13.248 9.64166 14.6532 9 16.1331 9C17.6129 9 19.0181 9.64166 20.0438 10.7602C21.0676 11.8767 21.6331 13.3784 21.6331 14.9325C21.6331 15.62 21.4207 16.3428 21.1262 17.0274C20.8281 17.7205 20.423 18.4259 19.9869 19.0925C19.1149 20.4254 18.0795 21.6622 17.4083 22.4209C16.7254 23.193 15.5408 23.193 14.8578 22.4209C14.1866 21.6622 13.1512 20.4254 12.2792 19.0925C11.8431 18.4259 11.4381 17.7205 11.1399 17.0274C10.8454 16.3428 10.6331 15.62 10.6331 14.9325C10.6331 13.3784 11.1985 11.8767 12.2223 10.7602Z" fill="#9A1725"/>
</svg>
